<svg width="323" height="34" viewBox="0 0 323 34" fill="none" xmlns="http://www.w3.org/2000/svg">
<path d="M64.41 0.0573401C59.6326 0.594792 55.6006 2.87896 52.5512 6.77549C51.7719 7.74962 50.2472 11.5454 49.8067 13.628C49.434 15.5427 49.5357 18.9017 50.0778 21.1859C50.4844 22.8319 51.9074 26.1909 52.2801 26.3253C52.4157 26.3925 52.5512 26.6276 52.5512 26.8627C52.5512 27.3666 56.0072 30.7593 56.5154 30.7593C56.7187 30.7593 56.9559 30.86 57.0236 30.9944C57.1253 31.2295 58.3112 31.8342 60.3441 32.7075C63.529 34.0176 69.7633 34.0512 73.0499 32.7747C75.1167 31.9685 76.8786 31.0952 77.5223 30.5577C77.9289 30.1882 78.5388 29.6844 78.8776 29.3821C79.8941 28.5087 81.1477 26.9635 81.6899 25.8886C81.9609 25.3176 82.2658 24.8137 82.3675 24.7129C82.4691 24.6122 82.8418 23.638 83.1807 22.5295C84.0616 19.8087 84.0616 13.46 83.2145 11.2766C82.2997 8.92529 81.2833 6.90985 80.9444 6.90985C80.8089 6.90985 80.6734 6.70831 80.6734 6.47317C80.6395 5.56622 76.6414 2.20715 75.5911 2.20715C75.4217 2.20715 75.2522 2.03919 75.2522 1.87124C75.2522 1.6697 74.9473 1.53533 74.5746 1.53533C74.2019 1.53533 73.897 1.36738 73.897 1.19943C73.897 0.997881 73.592 0.863518 73.1854 0.863518C72.8127 0.863518 72.2367 0.729155 71.9318 0.561201C71.2541 0.225294 66.1379 -0.144204 64.41 0.0573401ZM69.8311 7.91757C69.8311 8.08553 70.2038 8.25348 70.6782 8.25348C71.1525 8.25348 71.5252 8.38784 71.5252 8.5558C71.5252 8.72375 71.7963 8.95888 72.1351 9.05966C72.8466 9.29479 74.2358 11.3102 74.8118 12.9226C75.32 14.2998 75.3878 19.7415 74.9473 20.6149C74.7779 20.9172 74.4391 21.6226 74.2019 22.1936C73.2532 24.2763 71.8301 25.284 69.1196 25.9222C65.9347 26.6612 62.5464 25.855 60.7846 23.9739C58.9888 22.0257 58.5483 20.7156 58.5145 16.9871C58.4806 13.9975 58.5822 13.2249 59.226 11.9149C60.0053 10.2353 62.1399 8.25348 63.1224 8.25348C63.4274 8.25348 63.8001 8.08553 63.9017 7.91757C64.0034 7.71603 65.3925 7.58166 66.985 7.58166C68.6452 7.58166 69.8311 7.71603 69.8311 7.91757Z" fill="#002359"/>
<path d="M0.237175 2.77841C0.372704 4.05485 0.609879 5.39848 0.745407 5.83516C0.914818 6.27184 1.05035 7.07802 1.05035 7.68265C1.05035 8.2537 1.18588 9.56374 1.38917 10.5715C1.76187 12.822 2.23622 15.8452 2.74445 19.5066C2.94775 20.9846 3.28657 23.0336 3.45598 24.0413C3.65927 25.0491 3.93033 27.0309 4.09974 28.4081C4.26915 29.7854 4.50633 31.4313 4.64185 32.0023L4.84515 33.1108H12.4009C18.0253 33.1108 20.0244 33.0101 20.2954 32.6742C20.4648 32.4726 20.702 31.1962 20.8375 29.9197C20.9392 28.6097 21.1763 26.5942 21.3458 25.385C21.5152 24.1757 21.8201 21.6228 22.0234 19.6745C22.2267 17.7263 22.5316 15.0726 22.7349 13.7962C23.1415 10.8066 23.3787 8.85833 23.6159 6.64134C23.7175 5.7008 23.9547 4.89462 24.0902 4.89462C24.3613 4.89462 24.429 5.26412 25.0728 11.4448C25.2761 13.2923 25.5133 15.1734 25.6149 15.6437C25.8182 16.6178 26.8347 25.1162 27.309 29.7518C27.4107 30.7595 27.5801 31.9352 27.6817 32.3383L27.8172 33.1108H35.5763H43.3353L43.5386 31.6664C43.8435 29.5502 44.3179 26.3255 44.9277 22.1939C45.2327 20.1448 45.6054 17.424 45.8087 16.1475C46.588 11.0081 46.7913 9.66451 47.0962 7.24597C47.2995 5.86875 47.5705 3.8869 47.7738 2.87918C47.9771 1.56914 47.9771 0.964507 47.6722 0.796554C47.4689 0.662191 45.6054 0.527828 43.5386 0.527828H39.7776L39.5744 1.77069C39.4727 2.47609 39.1339 4.55872 38.8289 6.40621C38.524 8.2537 38.1513 10.8066 37.9819 12.1166C37.8125 13.3931 37.5075 15.3749 37.3381 16.4834C37.1687 17.5919 36.8638 19.5402 36.6605 20.8502C35.8134 26.5606 35.644 27.6356 35.3391 28.5761C35.068 29.483 35.0341 29.3151 34.797 27.2325C34.6953 25.9224 34.4243 23.739 34.2549 22.3618C33.2384 14.7703 32.7302 10.3027 32.2219 5.39848C31.9848 3.1815 31.6459 1.16605 31.4426 0.930917C31.2055 0.6286 29.3081 0.527828 24.0902 0.527828C18.8724 0.527828 16.975 0.6286 16.7378 0.930917C16.5345 1.16605 16.1957 3.11431 15.9924 5.23053C15.5519 9.05987 15.247 11.68 14.6371 16.3827C14.1289 20.2456 13.6206 24.3437 13.3835 26.8966C13.1802 28.8448 13.0785 29.08 12.8075 28.4081C12.5025 27.602 12.1298 25.2842 11.6893 21.522C11.5877 20.5815 11.3844 19.5402 11.215 19.1707C11.0456 18.8012 10.8423 17.6591 10.7745 16.6514C10.5712 13.8633 8.84324 2.77841 8.30113 0.930917C8.23336 0.6286 7.08137 0.527828 4.09974 0.527828H0L0.237175 2.77841Z" fill="#002359"/>
<path d="M87.4498 16.7522V33.1108H91.6851H95.9204L95.9881 27.6356L96.0898 22.1939H102.189H108.287L108.389 27.6356L108.457 33.1108H112.692H116.927V27.6691C116.927 24.2429 116.758 21.7908 116.521 21.0518C116.046 19.7081 114.386 17.995 113.539 17.995C113.234 17.995 112.861 17.8606 112.692 17.6927C112.489 17.5247 112.048 17.3232 111.676 17.256C111.133 17.1552 111.235 17.0209 112.353 16.3491C115.335 14.5688 116.25 12.9228 116.25 9.19424C116.25 6.97725 116.114 6.37262 115.436 5.29771C114.996 4.6259 114.284 3.81972 113.878 3.55099C113.471 3.28227 112.929 2.84559 112.658 2.61045C112.421 2.40891 111.913 2.20736 111.54 2.20736C111.133 2.20736 110.829 2.03941 110.829 1.87146C110.829 1.66991 110.388 1.53555 109.88 1.53555C109.372 1.53555 108.762 1.3676 108.558 1.16605C108.321 0.930917 104.526 0.729372 97.8178 0.6286L87.4498 0.427056V16.7522ZM105.102 8.22011C107.305 8.5896 107.949 9.29501 107.915 11.4784C107.915 12.5197 107.711 13.3931 107.406 13.6954C106.424 14.6359 104.289 15.0054 100.156 14.9047L96.0898 14.8039L95.9881 11.8143C95.9204 10.1684 95.9542 8.62319 96.0559 8.35447C96.2592 7.85061 102.324 7.74984 105.102 8.22011Z" fill="#002359"/>
<path d="M120.892 0.762963C120.756 0.863735 120.654 7.44752 120.654 15.3413C120.654 29.7518 120.722 30.8939 121.84 31.9352C123.026 33.0437 123.738 33.1108 134.377 33.1108H145.083L144.982 29.483L144.88 25.8888L137.019 25.7881L129.125 25.7209V13.1244V0.527828H125.127C122.924 0.527828 120.993 0.6286 120.892 0.762963Z" fill="#002359"/>
<path d="M147.421 16.7522V33.1108H155.553C163.481 33.1108 164.633 33.0101 168.767 31.8344C171.207 31.1626 172.291 30.5579 173.985 28.8784C175.543 27.3332 176.052 26.4935 177.238 23.5375C177.847 21.9923 178.322 17.995 178.118 15.778C177.814 12.251 177.542 10.605 177.204 10.4035C177.034 10.3027 176.899 9.93323 176.899 9.56374C176.899 8.11933 173.138 3.58458 171.511 3.04713C171.139 2.94636 170.8 2.67763 170.8 2.50968C170.8 2.34173 170.495 2.20736 170.122 2.20736C169.75 2.20736 169.174 2.073 168.835 1.90505C167.005 0.998098 165.277 0.830144 156.671 0.6286L147.421 0.427056V16.7522ZM166.124 8.65679C166.87 9.09347 167.344 9.49655 168.462 10.8738C169.309 11.8479 169.919 15.7108 169.648 18.3981C169.343 21.8244 168.191 23.8734 166.023 25.0827C165.48 25.385 163.549 25.5865 160.398 25.6537L155.553 25.7881V17.0545C155.553 10.3699 155.655 8.2537 155.993 8.11933C156.739 7.74984 165.345 8.22011 166.124 8.65679Z" fill="#002359"/>
<path d="M192.044 0.762963C191.909 0.863735 191.807 2.4425 191.807 4.2564C191.807 6.91007 191.909 7.54829 192.349 7.71624C192.654 7.81702 194.822 7.91779 197.228 7.91779C199.634 7.91779 201.802 8.01856 202.107 8.11933C202.581 8.28729 202.649 9.73169 202.649 20.7159V33.1108H206.715H210.781L210.849 20.5815L210.95 8.08574L215.524 8.01856C222.131 7.8842 221.623 8.18652 221.623 4.2564C221.623 1.53555 221.521 0.897326 221.081 0.729372C220.37 0.460646 192.315 0.460646 192.044 0.762963Z" fill="#002359"/>
<path d="M224.13 0.964507C224.029 1.23323 224.029 2.84559 224.063 4.59231L224.164 7.74984L227.044 7.85061C228.637 7.8842 230.263 7.98497 230.704 8.08574L231.449 8.2537V16.9873V25.6873L227.824 25.7881L224.164 25.8888L224.063 29.483L223.961 33.1108H235.684H247.407L247.306 29.483L247.204 25.8888L243.647 25.7881C241.343 25.7209 240.021 25.5529 239.852 25.2842C239.716 25.0491 239.581 21.1525 239.581 16.6178C239.581 9.36219 239.648 8.28729 240.123 8.11933C240.428 8.01856 241.919 7.91779 243.477 7.91779C245.036 7.91779 246.527 7.81702 246.831 7.71624C247.272 7.54829 247.374 6.91007 247.374 4.22281C247.374 1.53555 247.272 0.897326 246.831 0.729372C246.527 0.6286 241.343 0.527828 235.312 0.527828C226.502 0.527828 224.266 0.6286 224.13 0.964507Z" fill="#002359"/>
<path d="M251.778 16.8189V33.144L255.776 33.0433L259.741 32.9425V19.2711C259.741 11.7803 259.842 5.49887 260.012 5.36451C260.147 5.23014 260.249 5.56605 260.249 6.1035C260.249 6.67454 260.384 7.24559 260.554 7.41354C260.723 7.61509 260.96 8.42126 261.062 9.26103C261.164 10.1008 261.401 11.6124 261.57 12.6201C261.773 13.6278 262.146 15.744 262.417 17.3228C262.688 18.9016 263.095 21.0178 263.298 22.0255C263.501 23.0332 263.806 24.7128 263.976 25.7205C264.281 27.6688 264.416 28.4413 265.06 31.3301L265.433 33.1105H272.277H279.121L279.528 31.1622C280.036 28.7437 280.409 26.7954 280.917 24.041C281.12 22.8317 281.459 21.085 281.662 20.178C281.832 19.2375 282.137 17.6251 282.306 16.5502C283.051 11.8811 283.831 7.71586 284.237 6.23787C284.475 5.43169 284.576 9.39539 284.61 19.0695L284.644 33.1105H288.71H292.776V16.8189V0.52744H285.355C281.256 0.52744 277.698 0.628212 277.393 0.728985C277.02 0.863348 276.851 1.4008 276.851 2.50929C276.851 3.38265 276.716 4.22242 276.546 4.39037C276.377 4.59192 276.14 5.56605 276.072 6.57377C275.97 7.58149 275.665 9.93285 275.36 11.7803C275.055 13.6278 274.649 16.2815 274.445 17.6587C274.242 19.0359 273.937 21.0178 273.768 22.0255C273.598 23.0332 273.327 24.78 273.158 25.8884C272.988 26.9969 272.717 28.2734 272.514 28.7437L272.209 29.5834L271.972 28.5757C271.87 28.0047 271.633 26.4931 271.43 25.2166C271.26 23.9066 270.956 21.9583 270.752 20.8498C270.549 19.7413 270.21 17.8603 270.041 16.651C269.295 11.6124 268.99 9.79848 267.94 3.38265L267.5 0.695394L259.639 0.594622L251.778 0.52744V16.8189Z" fill="#002359"/>
<path d="M297.689 0.930917C297.587 1.16605 297.553 8.45524 297.587 17.1552L297.689 32.9429L309.988 33.0437L322.287 33.1108L322.185 29.5166L322.084 25.8888L314.223 25.7881L306.329 25.7209V23.0336V20.3464H313.952H321.575V16.9873V13.6282H313.952H306.329V10.773V7.91779L314.223 7.85061L322.084 7.74984V4.22281V0.695782L309.954 0.595009C300.433 0.527828 297.79 0.595009 297.689 0.930917Z" fill="#002359"/>
</svg>
